<svg width="1440" height="1024" viewBox="0 0 1440 1024" fill="none" xmlns="http://www.w3.org/2000/svg">
<path d="M127.888 -125.44L214.657 -75.8401V23.3599L127.888 72.9599L41.1195 23.3599V-75.8401L127.888 -125.44Z" fill="url(#paint0_radial_5727_8884)"/>
<path d="M921.488 -125.44L1008.26 -75.8401V23.3599L921.488 72.9599L834.719 23.3599V-75.8401L921.488 -125.44Z" fill="url(#paint1_radial_5727_8884)"/>
<path d="M227.088 53.1199L313.857 102.72V201.92L227.088 251.52L140.32 201.92V102.72L227.088 53.1199Z" fill="url(#paint2_radial_5727_8884)"/>
<path d="M623.888 53.1199L710.657 102.72V201.92L623.888 251.52L537.119 201.92V102.72L623.888 53.1199Z" fill="url(#paint3_radial_5727_8884)"/>
<path d="M822.288 53.1199L909.057 102.72V201.92L822.288 251.52L735.519 201.92V102.72L822.288 53.1199Z" fill="url(#paint4_radial_5727_8884)"/>
<path d="M1417.49 53.1199L1504.26 102.72V201.92L1417.49 251.52L1330.72 201.92V102.72L1417.49 53.1199Z" fill="url(#paint5_radial_5727_8884)"/>
<path d="M127.888 231.68L214.657 281.28V380.48L127.888 430.08L41.1195 380.48V281.28L127.888 231.68Z" fill="url(#paint6_radial_5727_8884)"/>
<path d="M326.288 231.68L413.057 281.28V380.48L326.288 430.08L239.519 380.48V281.28L326.288 231.68Z" fill="url(#paint7_radial_5727_8884)"/>
<path d="M723.088 231.68L809.857 281.28V380.48L723.088 430.08L636.32 380.48V281.28L723.088 231.68Z" fill="url(#paint8_radial_5727_8884)"/>
<path d="M227.088 410.24L313.857 459.84V559.04L227.088 608.64L140.32 559.04V459.84L227.088 410.24Z" fill="url(#paint9_radial_5727_8884)"/>
<path d="M622.896 410.24L708.806 459.84V559.04L622.896 608.64L536.986 559.04V459.84L622.896 410.24Z" fill="url(#paint10_radial_5727_8884)"/>
<path d="M1020.69 410.24L1107.46 459.84V559.04L1020.69 608.64L933.919 559.04V459.84L1020.69 410.24Z" fill="url(#paint11_radial_5727_8884)"/>
<path d="M-71.5039 588.8L14.4059 638.4V737.6L-71.5039 787.2L-157.414 737.6V638.4L-71.5039 588.8Z" fill="url(#paint12_radial_5727_8884)"/>
<path d="M326.288 588.8L413.057 638.4V737.6L326.288 787.2L239.519 737.6V638.4L326.288 588.8Z" fill="url(#paint13_radial_5727_8884)"/>
<path d="M28.6882 767.36L115.457 816.96V916.16L28.6882 965.76L-58.0806 916.16V816.96L28.6882 767.36Z" fill="url(#paint14_radial_5727_8884)"/>
<path d="M424.496 767.36L510.406 816.96V916.16L424.496 965.76L338.586 916.16V816.96L424.496 767.36Z" fill="url(#paint15_radial_5727_8884)"/>
<path d="M822.288 767.36L909.057 816.96V916.16L822.288 965.76L735.519 916.16V816.96L822.288 767.36Z" fill="url(#paint16_radial_5727_8884)"/>
<path d="M1019.7 767.36L1105.61 816.96V916.16L1019.7 965.76L933.786 916.16V816.96L1019.7 767.36Z" fill="url(#paint17_radial_5727_8884)"/>
<path d="M1417.49 767.36L1504.26 816.96V916.16L1417.49 965.76L1330.72 916.16V816.96L1417.49 767.36Z" fill="url(#paint18_radial_5727_8884)"/>
<path d="M-71.5039 945.92L14.4059 995.52V1094.72L-71.5039 1144.32L-157.414 1094.72V995.52L-71.5039 945.92Z" fill="url(#paint19_radial_5727_8884)"/>
<path d="M127.888 945.92L214.657 995.52V1094.72L127.888 1144.32L41.1195 1094.72V995.52L127.888 945.92Z" fill="url(#paint20_radial_5727_8884)"/>
<path d="M723.088 945.92L809.857 995.52V1094.72L723.088 1144.32L636.32 1094.72V995.52L723.088 945.92Z" fill="url(#paint21_radial_5727_8884)"/>
<path d="M921.488 945.92L1008.26 995.52V1094.72L921.488 1144.32L834.719 1094.72V995.52L921.488 945.92Z" fill="url(#paint22_radial_5727_8884)"/>
<path d="M1318.29 945.92L1405.06 995.52V1094.72L1318.29 1144.32L1231.52 1094.72V995.52L1318.29 945.92Z" fill="url(#paint23_radial_5727_8884)"/>
<defs>
<radialGradient id="paint0_radial_5727_8884" cx="0" cy="0" r="1" gradientUnits="userSpaceOnUse" gradientTransform="translate(616 497) rotate(90.3062) scale(842.012 1433.54)">
<stop stop-color="#E1D0BC"/>
<stop offset="0.534803" stop-color="#D8C1AB"/>
<stop offset="1" stop-color="#C9A88D"/>
</radialGradient>
<radialGradient id="paint1_radial_5727_8884" cx="0" cy="0" r="1" gradientUnits="userSpaceOnUse" gradientTransform="translate(616 497) rotate(90.3062) scale(842.012 1433.54)">
<stop stop-color="#E1D0BC"/>
<stop offset="0.534803" stop-color="#D8C1AB"/>
<stop offset="1" stop-color="#C9A88D"/>
</radialGradient>
<radialGradient id="paint2_radial_5727_8884" cx="0" cy="0" r="1" gradientUnits="userSpaceOnUse" gradientTransform="translate(616 497) rotate(90.3062) scale(842.012 1433.54)">
<stop stop-color="#E1D0BC"/>
<stop offset="0.534803" stop-color="#D8C1AB"/>
<stop offset="1" stop-color="#C9A88D"/>
</radialGradient>
<radialGradient id="paint3_radial_5727_8884" cx="0" cy="0" r="1" gradientUnits="userSpaceOnUse" gradientTransform="translate(616 497) rotate(90.3062) scale(842.012 1433.54)">
<stop stop-color="#E1D0BC"/>
<stop offset="0.534803" stop-color="#D8C1AB"/>
<stop offset="1" stop-color="#C9A88D"/>
</radialGradient>
<radialGradient id="paint4_radial_5727_8884" cx="0" cy="0" r="1" gradientUnits="userSpaceOnUse" gradientTransform="translate(616 497) rotate(90.3062) scale(842.012 1433.54)">
<stop stop-color="#E1D0BC"/>
<stop offset="0.534803" stop-color="#D8C1AB"/>
<stop offset="1" stop-color="#C9A88D"/>
</radialGradient>
<radialGradient id="paint5_radial_5727_8884" cx="0" cy="0" r="1" gradientUnits="userSpaceOnUse" gradientTransform="translate(616 497) rotate(90.3062) scale(842.012 1433.54)">
<stop stop-color="#E1D0BC"/>
<stop offset="0.534803" stop-color="#D8C1AB"/>
<stop offset="1" stop-color="#C9A88D"/>
</radialGradient>
<radialGradient id="paint6_radial_5727_8884" cx="0" cy="0" r="1" gradientUnits="userSpaceOnUse" gradientTransform="translate(616 497) rotate(90.3062) scale(842.012 1433.54)">
<stop stop-color="#E1D0BC"/>
<stop offset="0.534803" stop-color="#D8C1AB"/>
<stop offset="1" stop-color="#C9A88D"/>
</radialGradient>
<radialGradient id="paint7_radial_5727_8884" cx="0" cy="0" r="1" gradientUnits="userSpaceOnUse" gradientTransform="translate(616 497) rotate(90.3062) scale(842.012 1433.54)">
<stop stop-color="#E1D0BC"/>
<stop offset="0.534803" stop-color="#D8C1AB"/>
<stop offset="1" stop-color="#C9A88D"/>
</radialGradient>
<radialGradient id="paint8_radial_5727_8884" cx="0" cy="0" r="1" gradientUnits="userSpaceOnUse" gradientTransform="translate(616 497) rotate(90.3062) scale(842.012 1433.54)">
<stop stop-color="#E1D0BC"/>
<stop offset="0.534803" stop-color="#D8C1AB"/>
<stop offset="1" stop-color="#C9A88D"/>
</radialGradient>
<radialGradient id="paint9_radial_5727_8884" cx="0" cy="0" r="1" gradientUnits="userSpaceOnUse" gradientTransform="translate(616 497) rotate(90.3062) scale(842.012 1433.54)">
<stop stop-color="#E1D0BC"/>
<stop offset="0.534803" stop-color="#D8C1AB"/>
<stop offset="1" stop-color="#C9A88D"/>
</radialGradient>
<radialGradient id="paint10_radial_5727_8884" cx="0" cy="0" r="1" gradientUnits="userSpaceOnUse" gradientTransform="translate(616 497) rotate(90.3062) scale(842.012 1433.54)">
<stop stop-color="#E1D0BC"/>
<stop offset="0.534803" stop-color="#D8C1AB"/>
<stop offset="1" stop-color="#C9A88D"/>
</radialGradient>
<radialGradient id="paint11_radial_5727_8884" cx="0" cy="0" r="1" gradientUnits="userSpaceOnUse" gradientTransform="translate(616 497) rotate(90.3062) scale(842.012 1433.54)">
<stop stop-color="#E1D0BC"/>
<stop offset="0.534803" stop-color="#D8C1AB"/>
<stop offset="1" stop-color="#C9A88D"/>
</radialGradient>
<radialGradient id="paint12_radial_5727_8884" cx="0" cy="0" r="1" gradientUnits="userSpaceOnUse" gradientTransform="translate(616 497) rotate(90.3062) scale(842.012 1433.54)">
<stop stop-color="#E1D0BC"/>
<stop offset="0.534803" stop-color="#D8C1AB"/>
<stop offset="1" stop-color="#C9A88D"/>
</radialGradient>
<radialGradient id="paint13_radial_5727_8884" cx="0" cy="0" r="1" gradientUnits="userSpaceOnUse" gradientTransform="translate(616 497) rotate(90.3062) scale(842.012 1433.54)">
<stop stop-color="#E1D0BC"/>
<stop offset="0.534803" stop-color="#D8C1AB"/>
<stop offset="1" stop-color="#C9A88D"/>
</radialGradient>
<radialGradient id="paint14_radial_5727_8884" cx="0" cy="0" r="1" gradientUnits="userSpaceOnUse" gradientTransform="translate(616 497) rotate(90.3062) scale(842.012 1433.54)">
<stop stop-color="#E1D0BC"/>
<stop offset="0.534803" stop-color="#D8C1AB"/>
<stop offset="1" stop-color="#C9A88D"/>
</radialGradient>
<radialGradient id="paint15_radial_5727_8884" cx="0" cy="0" r="1" gradientUnits="userSpaceOnUse" gradientTransform="translate(616 497) rotate(90.3062) scale(842.012 1433.54)">
<stop stop-color="#E1D0BC"/>
<stop offset="0.534803" stop-color="#D8C1AB"/>
<stop offset="1" stop-color="#C9A88D"/>
</radialGradient>
<radialGradient id="paint16_radial_5727_8884" cx="0" cy="0" r="1" gradientUnits="userSpaceOnUse" gradientTransform="translate(616 497) rotate(90.3062) scale(842.012 1433.54)">
<stop stop-color="#E1D0BC"/>
<stop offset="0.534803" stop-color="#D8C1AB"/>
<stop offset="1" stop-color="#C9A88D"/>
</radialGradient>
<radialGradient id="paint17_radial_5727_8884" cx="0" cy="0" r="1" gradientUnits="userSpaceOnUse" gradientTransform="translate(616 497) rotate(90.3062) scale(842.012 1433.54)">
<stop stop-color="#E1D0BC"/>
<stop offset="0.534803" stop-color="#D8C1AB"/>
<stop offset="1" stop-color="#C9A88D"/>
</radialGradient>
<radialGradient id="paint18_radial_5727_8884" cx="0" cy="0" r="1" gradientUnits="userSpaceOnUse" gradientTransform="translate(616 497) rotate(90.3062) scale(842.012 1433.54)">
<stop stop-color="#E1D0BC"/>
<stop offset="0.534803" stop-color="#D8C1AB"/>
<stop offset="1" stop-color="#C9A88D"/>
</radialGradient>
<radialGradient id="paint19_radial_5727_8884" cx="0" cy="0" r="1" gradientUnits="userSpaceOnUse" gradientTransform="translate(616 497) rotate(90.3062) scale(842.012 1433.54)">
<stop stop-color="#E1D0BC"/>
<stop offset="0.534803" stop-color="#D8C1AB"/>
<stop offset="1" stop-color="#C9A88D"/>
</radialGradient>
<radialGradient id="paint20_radial_5727_8884" cx="0" cy="0" r="1" gradientUnits="userSpaceOnUse" gradientTransform="translate(616 497) rotate(90.3062) scale(842.012 1433.54)">
<stop stop-color="#E1D0BC"/>
<stop offset="0.534803" stop-color="#D8C1AB"/>
<stop offset="1" stop-color="#C9A88D"/>
</radialGradient>
<radialGradient id="paint21_radial_5727_8884" cx="0" cy="0" r="1" gradientUnits="userSpaceOnUse" gradientTransform="translate(616 497) rotate(90.3062) scale(842.012 1433.54)">
<stop stop-color="#E1D0BC"/>
<stop offset="0.534803" stop-color="#D8C1AB"/>
<stop offset="1" stop-color="#C9A88D"/>
</radialGradient>
<radialGradient id="paint22_radial_5727_8884" cx="0" cy="0" r="1" gradientUnits="userSpaceOnUse" gradientTransform="translate(616 497) rotate(90.3062) scale(842.012 1433.54)">
<stop stop-color="#E1D0BC"/>
<stop offset="0.534803" stop-color="#D8C1AB"/>
<stop offset="1" stop-color="#C9A88D"/>
</radialGradient>
<radialGradient id="paint23_radial_5727_8884" cx="0" cy="0" r="1" gradientUnits="userSpaceOnUse" gradientTransform="translate(616 497) rotate(90.3062) scale(842.012 1433.54)">
<stop stop-color="#E1D0BC"/>
<stop offset="0.534803" stop-color="#D8C1AB"/>
<stop offset="1" stop-color="#C9A88D"/>
</radialGradient>
</defs>
</svg>
